Patient4_TMGait_0pt7_01_left_26_GRF.mot
version=1
nRows=71
nColumns=19
inDegrees=no
endheader
time	F1x	F1y	F1z	M1x	M1y	M1z	F2x	F2y	F2z	M2x	M2y	M2z	EC1x	EC1y	EC1z	EC2x	EC2y	EC2z
29.95	7.6695	-5.3802	-12.4562	2.4886	10.2942	-16.0014	-16.1456	737.1525	-92.7003	267.2455	95.4118	787.6371	-0.0592	0.0182	-0.0073	-0.0462	0.0165	0.9585
29.9616	4.9535	-2.6307	-8.4367	1.3276	6.9222	-9.4383	-17.4761	738.3347	-85.8598	265.3847	91.853	789.9883	-0.0592	0.0182	-0.0073	-0.0462	0.0165	0.9585
29.9731	2.7097	-0.28562	-5.0031	0.32728	4.0581	-3.8851	-18.4969	739.4217	-79.8258	263.6898	88.4593	791.2655	-0.0592	0.0182	-0.0073	-0.0462	0.0165	0.9585
29.9847	1.0102	1.5483	-2.3558	-0.45549	1.8525	0.39608	-19.1481	740.4586	-75.0145	262.2916	85.4849	791.4541	-0.0592	0.0182	-0.0073	-0.0462	0.0165	0.9585
29.9963	-0.13435	2.8472	-0.51557	-1.0137	0.32555	3.3659	-19.3778	741.4593	-71.4773	261.2234	82.9892	790.6328	-0.0592	0.0182	-0.0073	-0.0462	0.0165	0.9585
30.0079	-0.85521	3.6807	0.63603	-1.374	-0.63576	5.2274	-19.1644	742.3843	-69.0842	260.4423	80.936	788.9074	-0.0592	0.0182	-0.0073	-0.0462	0.0165	0.9585
30.0194	-1.2362	4.1103	1.2626	-1.5651	-1.1661	6.1608	-18.4499	743.0905	-67.5546	259.8531	79.1648	786.2765	-0.0592	0.0182	-0.0073	-0.0462	0.0165	0.9585
30.031	-1.4372	4.2008	1.5179	-1.6129	-1.4062	6.3851	-17.2259	743.4424	-66.6406	259.3504	77.5543	782.7612	-0.0592	0.0182	-0.0073	-0.0462	0.0165	0.9585
30.0426	-1.5262	3.9651	1.5607	-1.5274	-1.4862	6.0046	-15.4737	743.3004	-66.1055	258.8313	75.9751	778.3446	-0.0592	0.0182	-0.0073	-0.0462	0.0165	0.9585
30.0541	-1.6018	3.4013	1.4865	-1.3076	-1.4921	5.1341	-13.256	742.5824	-65.7986	258.2169	74.3771	773.075	-0.0592	0.0182	-0.0073	-0.0462	0.0165	0.9585
30.0657	-1.6719	2.4415	1.3903	-0.93298	-1.4985	3.7558	-10.62	741.2624	-65.6329	257.4577	72.7474	767.014	-0.0592	0.0182	-0.0073	-0.0462	0.0165	0.9585
30.0773	-1.7671	1.0324	1.3046	-0.38573	-1.5312	1.8663	-7.7029	739.3706	-65.565	256.5336	71.1131	760.2851	-0.0592	0.0182	-0.0073	-0.0462	0.0165	0.9585
30.0889	-1.829	-0.88383	1.2534	0.35061	-1.5841	-0.5945	-4.5971	736.9674	-65.6048	255.4443	69.5309	753.0278	-0.0592	0.0182	-0.0073	-0.0462	0.0165	0.9585
30.1004	-1.819	-3.2621	1.2223	1.2577	-1.6175	-3.5402	-1.4316	734.1124	-65.7818	254.1944	68.0752	745.3782	-0.0592	0.0182	-0.0073	-0.0462	0.0165	0.9585
30.112	-1.5906	-5.9263	1.1823	2.2631	-1.5446	-6.7761	1.7125	730.8127	-66.1579	252.7777	66.8307	737.37	-0.0592	0.0182	-0.0073	-0.0462	0.0165	0.9585
30.1236	-1.019	-8.4237	1.0923	3.2001	-1.2652	-9.7722	4.8011	727.0982	-66.7655	251.1958	65.8361	729.0653	-0.0592	0.0182	-0.0073	-0.0462	0.0165	0.9585
30.1351	0.080325	-10.0015	0.88923	3.7818	-0.63181	-11.6804	7.8454	722.9949	-67.6289	249.4592	65.1019	720.492	-0.0592	0.0182	-0.0073	-0.0462	0.0165	0.9585
30.1467	1.8689	-9.4865	0.51107	3.5582	0.49676	-11.0977	10.8767	718.6676	-68.7297	247.6267	64.5885	711.8065	-0.0592	0.0182	-0.0073	-0.0462	0.0165	0.9585
30.1583	4.5113	-5.2533	-0.11032	1.901	2.2614	-6.1149	13.9395	714.3562	-70.0203	245.7888	64.2258	703.227	-0.0592	0.0182	-0.0073	-0.0462	0.0165	0.9585
30.1699	8.0513	4.8013	-1.0283	-1.9947	4.7378	5.7724	17.037	710.316	-71.4154	244.0383	63.9312	694.9978	-0.0592	0.0182	-0.0073	-0.0462	0.0165	0.9585
30.1814	12.3629	23.0218	-2.2611	-9.03	7.8903	27.3505	20.1342	706.6421	-72.7937	242.4122	63.6075	687.2155	-0.0592	0.0182	-0.0073	-0.0462	0.0165	0.9585
30.193	16.9689	51.6656	-3.7754	-20.0664	11.4804	61.34	23.1319	703.1311	-73.9847	240.8433	63.1367	679.7455	-0.0592	0.0182	-0.0073	-0.0462	0.0165	0.9585
30.2046	20.9414	92.1815	-5.4123	-35.6495	14.9442	109.5174	25.9145	699.1297	-74.7592	239.1134	62.3582	672.048	-0.0592	0.0182	-0.0073	-0.0462	0.0165	0.9585
30.2161	22.6881	144.2002	-6.863	-55.6131	17.2794	171.5359	28.3475	693.5285	-74.8338	236.849	61.0693	663.1717	-0.0592	0.0182	-0.0073	-0.0462	0.0165	0.9585
30.2277	20.127	204.2858	-7.5477	-78.6076	17.003	243.4041	30.3651	684.8294	-73.9074	233.5518	59.0356	651.7763	-0.0592	0.0182	-0.0073	-0.0462	0.0165	0.9585
30.2393	12.0819	265.6749	-6.6596	-101.9889	12.7223	317.1827	31.9538	671.5149	-71.7193	228.7235	56.0434	636.472	-0.0592	0.0182	-0.0073	-0.0462	0.0165	0.9585
30.2509	0.48866	319.9539	-3.1529	-122.505	4.0279	382.7371	33.1867	652.4129	-68.1569	221.9881	51.989	616.1307	-0.0592	0.0182	-0.0073	-0.0462	0.0165	0.9585
30.2624	-11.3178	361.6361	2.6387	-138.083	-7.3606	433.1755	34.1676	626.9683	-63.3302	213.1703	46.9509	590.1791	-0.0592	0.0182	-0.0073	-0.0462	0.0165	0.9585
30.274	-21.6447	390.6215	9.2462	-148.7266	-19.0884	468.1192	34.9982	595.2919	-57.5669	202.2992	41.1921	558.6765	-0.0592	0.0182	-0.0073	-0.0462	0.0165	0.9585
30.2856	-29.7818	410.6457	15.83	-155.882	-29.856	491.9513	35.7304	557.8612	-51.3165	189.5203	35.0856	522.0351	-0.0592	0.0182	-0.0073	-0.0462	0.0165	0.9585
30.2971	-35.7226	426.3736	21.3172	-161.3687	-38.4735	510.3539	36.3684	515.3993	-44.9475	175.0604	28.9413	480.9387	-0.0592	0.0182	-0.0073	-0.0462	0.0165	0.9585
30.3087	-39.8209	441.5153	25.5513	-166.5983	-44.8536	527.8631	36.8202	468.6791	-38.6639	159.1742	22.9605	436.1233	-0.0592	0.0182	-0.0073	-0.0462	0.0165	0.9585
30.3203	-42.4493	457.9981	28.3439	-172.315	-48.9729	546.785	36.8237	418.5578	-32.5093	142.1511	17.2699	388.4303	-0.0592	0.0182	-0.0073	-0.0462	0.0165	0.9585
30.3319	-43.8364	476.7107	30.2305	-178.822	-51.5271	568.1283	36.0931	366.0632	-26.497	124.3368	11.9928	338.8453	-0.0592	0.0182	-0.0073	-0.0462	0.0165	0.9585
30.3434	-44.1327	498.3234	31.7623	-186.3194	-53.2334	592.5902	34.3158	312.4632	-20.6945	106.1544	7.2982	288.5791	-0.0592	0.0182	-0.0073	-0.0462	0.0165	0.9585
30.355	-43.51	523.115	33.616	-194.8612	-54.9455	620.4453	31.3764	259.3079	-15.2734	88.1206	3.3815	239.0565	-0.0592	0.0182	-0.0073	-0.0462	0.0165	0.9585
30.3666	-42.4476	550.7803	36.5217	-204.2853	-57.6481	651.2937	27.3592	208.3592	-10.4748	70.8251	0.41592	191.8716	-0.0592	0.0182	-0.0073	-0.0462	0.0165	0.9585
30.3781	-41.4187	580.5651	40.7283	-214.312	-61.8018	684.1991	22.6204	161.3756	-6.5198	54.8629	-1.5324	148.558	-0.0592	0.0182	-0.0073	-0.0462	0.0165	0.9585
30.3897	-40.645	611.9524	46.2395	-224.7688	-67.4663	718.5012	17.6223	119.8735	-3.5351	40.748	-2.5207	110.4368	-0.0592	0.0182	-0.0073	-0.0462	0.0165	0.9585
30.4013	-40.2131	644.3766	52.4098	-235.5122	-73.9633	753.4428	12.8434	84.7417	-1.5071	28.793	-2.7306	78.2303	-0.0592	0.0182	-0.0073	-0.0462	0.0165	0.9585
30.4129	-40.0411	676.9473	58.827	-246.2695	-80.7667	787.9678	8.6028	56.3035	-0.28313	19.1137	-2.414	52.1966	-0.0592	0.0182	-0.0073	-0.0462	0.0165	0.9585
30.4244	-40.0057	708.3995	64.8794	-256.6321	-87.1545	820.588	5.123	34.346	0.3369	11.6442	-1.821	32.093	-0.0592	0.0182	-0.0073	-0.0462	0.0165	0.9585
30.436	-39.9749	737.2279	70.3819	-266.0782	-92.8496	849.6452	2.446	18.3295	0.57105	6.2019	-1.1599	17.435	-0.0592	0.0182	-0.0073	-0.0462	0.0165	0.9585
30.4476	-39.7993	762.0894	75.1641	-274.1386	-97.6113	873.6638	0.61488	7.4895	0.59386	2.5262	-0.59183	7.4971	-0.0592	0.0182	-0.0073	-0.0462	0.0165	0.9585
30.4591	-39.3124	781.9842	79.1667	-280.4641	-101.3364	891.5928	-0.51782	0.91079	0.50544	0.3015	-0.15339	1.4567	-0.0592	0.0182	-0.0073	-0.0462	0.0165	0.9585
30.4707	-38.3868	796.3287	82.3607	-284.8586	-103.9543	902.8782	-1.0887	-2.4851	0.36138	-0.83704	0.15475	-1.7	-0.0592	0.0182	-0.0073	-0.0462	0.0165	0.9585
30.4823	-36.9232	804.9583	84.5885	-287.2743	-105.2857	907.4626	-1.2946	-3.6769	0.20613	-1.2267	0.35086	-2.8302	-0.0592	0.0182	-0.0073	-0.0462	0.0165	0.9585
30.4939	-34.943	808.0551	85.8681	-287.7804	-105.355	905.7178	-1.2587	-3.5538	0.070444	-1.1671	0.4449	-2.7573	-0.0592	0.0182	-0.0073	-0.0462	0.0165	0.9585
30.5054	-32.5195	806.1625	86.0841	-286.571	-104.0929	898.3778	-1.1175	-2.7074	-0.039853	-0.86601	0.47286	-1.9997	-0.0592	0.0182	-0.0073	-0.0462	0.0165	0.9585
30.517	-29.8011	800.0332	85.4103	-283.8973	-101.7401	886.4362	-0.92309	-1.6154	-0.11446	-0.4815	0.44829	-1.0204	-0.0592	0.0182	-0.0073	-0.0462	0.0165	0.9585
30.5286	-26.9563	790.5505	83.9064	-280.0537	-98.442	870.9552	-0.7607	-0.50863	-0.16782	-0.098223	0.41743	-0.0039998	-0.0592	0.0182	-0.0073	-0.0462	0.0165	0.9585
30.5401	-24.1793	778.5977	81.8352	-275.326	-94.5534	852.9817	-0.60707	0.45364	-0.19227	0.23119	0.37571	0.8848	-0.0592	0.0182	-0.0073	-0.0462	0.0165	0.9585
30.5517	-21.6222	765.0887	79.3548	-270.0255	-90.3102	833.5107	-0.51172	1.2308	-0.1979	0.49164	0.34375	1.6422	-0.0592	0.0182	-0.0073	-0.0462	0.0165	0.9585
30.5633	-19.3824	750.9506	76.6764	-264.4741	-85.9796	813.5033	-0.42285	1.8283	-0.18352	0.68831	0.30553	2.2496	-0.0592	0.0182	-0.0073	-0.0462	0.0165	0.9585
30.5749	-17.5023	737.0175	73.9832	-258.9766	-81.7734	793.7836	-0.38683	2.2798	-0.1633	0.83268	0.2818	2.7539	-0.0592	0.0182	-0.0073	-0.0462	0.0165	0.9585
30.5864	-15.954	724.0089	71.3631	-253.8058	-77.7966	775.026	-0.35507	2.6043	-0.13154	0.93451	0.25334	3.1336	-0.0592	0.0182	-0.0073	-0.0462	0.0165	0.9585
30.598	-14.7256	712.4048	68.9306	-249.1614	-74.1729	757.6743	-0.37079	2.8392	-0.10692	1.0047	0.24506	3.4273	-0.0592	0.0182	-0.0073	-0.0462	0.0165	0.9585
30.6096	-13.7383	702.5109	66.6145	-245.193	-70.8354	741.9863	-0.39723	2.9619	-0.08592	1.0408	0.24718	3.5711	-0.0592	0.0182	-0.0073	-0.0462	0.0165	0.9585
30.6211	-12.904	694.456	64.4424	-241.9888	-67.79	728.0575	-0.46241	2.9845	-0.084527	1.0432	0.28109	3.5914	-0.0592	0.0182	-0.0073	-0.0462	0.0165	0.9585
30.6327	-12.0315	688.3045	62.2719	-239.6137	-64.8411	715.8697	-0.53062	2.8511	-0.1056	0.9947	0.33932	3.4015	-0.0592	0.0182	-0.0073	-0.0462	0.0165	0.9585
30.6443	-10.8756	684.1056	60.0895	-238.1052	-61.8779	705.4071	-0.63795	2.5286	-0.15737	0.87936	0.4412	2.9845	-0.0592	0.0182	-0.0073	-0.0462	0.0165	0.9585
30.6559	-9.1168	681.9682	57.8172	-237.5033	-58.6993	696.704	-0.74448	1.9169	-0.25178	0.66296	0.59141	2.2046	-0.0592	0.0182	-0.0073	-0.0462	0.0165	0.9585
30.6674	-6.4643	682.1072	55.5328	-237.8529	-55.2485	689.9056	-0.88295	0.95817	-0.3839	0.3194	0.79178	1.0161	-0.0592	0.0182	-0.0073	-0.0462	0.0165	0.9585
30.679	-2.6819	684.772	53.367	-239.1923	-51.5343	685.2262	-1.0023	-0.4433	-0.56491	-0.18509	1.036	-0.70112	-0.0592	0.0182	-0.0073	-0.0462	0.0165	0.9585
30.6906	2.2808	690.1841	51.5424	-241.5313	-47.7067	682.9055	-1.0977	-2.2846	-0.76342	-0.85438	1.2855	-2.9182	-0.0592	0.0182	-0.0073	-0.0462	0.0165	0.9585
30.7021	8.2878	698.4794	50.3282	-244.8407	-44.0311	683.1562	-1.0732	-4.5259	-0.94965	-1.6707	1.4713	-5.6089	-0.0592	0.0182	-0.0073	-0.0462	0.0165	0.9585
30.7137	15.0093	709.6274	49.9387	-249.0397	-40.7946	686.077	-0.86989	-6.9037	-1.0577	-2.5398	1.4894	-8.4483	-0.0592	0.0182	-0.0073	-0.0462	0.0165	0.9585
30.7253	21.981	723.3866	50.5363	-253.9881	-38.295	691.6008	-0.33795	-8.9854	-1.0056	-3.2949	1.1927	-10.936	-0.0592	0.0182	-0.0073	-0.0462	0.0165	0.9585
30.7369	28.6987	739.2399	52.1123	-259.4725	-36.696	699.4042	0.62492	-9.9567	-0.66831	-3.6349	0.39551	-12.0899	-0.0592	0.0182	-0.0073	-0.0462	0.0165	0.9585
30.7484	34.6784	756.341	54.5567	-265.188	-36.0739	708.8307	2.1946	-8.6529	0.097501	-3.1233	-1.122	-10.5474	-0.0592	0.0182	-0.0073	-0.0462	0.0165	0.9585
30.76	39.6075	773.479	57.6481	-270.7246	-36.3581	718.8345	4.4238	-3.4596	1.4508	-1.1601	-3.5608	-4.3883	-0.0592	0.0182	-0.0073	-0.0462	0.0165	0.9585
